<svg width="14" height="18" viewBox="0 0 14 18" fill="none" xmlns="http://www.w3.org/2000/svg">
<path d="M10.6783 9.04705C10.5657 8.97314 10.4343 8.99162 10.3405 9.06553C9.40214 9.74925 8.25737 10.1373 7 10.1373C5.74263 10.1373 4.59786 9.73077 3.65952 9.06553C3.56568 8.99162 3.41555 8.99162 3.32172 9.04705C1.10724 10.4514 0 13.2048 0 16.3646C0 18.5451 14 18.5451 14 16.3646C14 13.2048 12.8928 10.4514 10.6783 9.04705Z" fill="#41AFFF"/>
<path d="M7 9C9.20914 9 11 6.98528 11 4.5C11 2.01472 9.20914 0 7 0C4.79086 0 3 2.01472 3 4.5C3 6.98528 4.79086 9 7 9Z" fill="#41AFFF"/>
</svg>
